<svg width="15" height="15" viewBox="0 0 15 15" fill="none" xmlns="http://www.w3.org/2000/svg">
<path d="M1.60714 2.14286V12.8571C1.60714 13.1518 1.84821 13.3929 2.14286 13.3929H12.8571C13.1518 13.3929 13.3929 13.1518 13.3929 12.8571V4.63728C13.3929 4.49665 13.3359 4.35937 13.2355 4.25893L14.3705 3.12388C14.7723 3.52567 14.9967 4.07143 14.9967 4.64063L15 12.8571C15 14.0391 14.0391 15 12.8571 15H2.14286C0.960937 15 0 14.0391 0 12.8571V2.14286C0 0.960937 0.960937 0 2.14286 0H10.3627C10.9319 0 11.4777 0.22433 11.8795 0.626116L14.3739 3.12054L13.2388 4.25558L10.7411 1.76451C10.731 1.75446 10.7243 1.74777 10.7143 1.73772V5.08929C10.7143 5.5346 10.356 5.89286 9.91071 5.89286H3.48214C3.03683 5.89286 2.67857 5.5346 2.67857 5.08929V1.60714H2.14286C1.84821 1.60714 1.60714 1.84821 1.60714 2.14286ZM4.28571 1.60714V4.28571H9.10714V1.60714H4.28571ZM5.35714 9.64286C5.35714 9.07454 5.58291 8.52949 5.98477 8.12763C6.38663 7.72576 6.93168 7.5 7.5 7.5C8.06832 7.5 8.61336 7.72576 9.01523 8.12763C9.41709 8.52949 9.64286 9.07454 9.64286 9.64286C9.64286 10.2112 9.41709 10.7562 9.01523 11.1581C8.61336 11.5599 8.06832 11.7857 7.5 11.7857C6.93168 11.7857 6.38663 11.5599 5.98477 11.1581C5.58291 10.7562 5.35714 10.2112 5.35714 9.64286Z" fill="#241E1E"/>
</svg>
